<?xml version="1.0" standalone="no"?>
<!DOCTYPE svg PUBLIC "-//W3C//DTD SVG 20010904//EN"
 "http://www.w3.org/TR/2001/REC-SVG-20010904/DTD/svg10.dtd">
<svg version="1.0" xmlns="http://www.w3.org/2000/svg"
 width="512.000000pt" height="512.000000pt" viewBox="0 0 512.000000 512.000000"
 preserveAspectRatio="xMidYMid meet">

<g transform="translate(0.000000,512.000000) scale(0.100000,-0.100000)"
fill="#000000" stroke="none">
<path d="M2068 4946 c-209 -37 -388 -129 -545 -279 -168 -161 -283 -384 -311
-603 l-7 -59 -80 -8 c-495 -48 -879 -430 -936 -930 -21 -191 13 -373 106 -562
65 -133 157 -251 260 -336 41 -34 75 -63 75 -64 0 -1 -16 -36 -35 -77 -178
-385 -91 -854 214 -1159 171 -171 386 -273 634 -299 161 -18 353 10 496 72
l46 20 20 -28 c159 -219 323 -344 542 -417 392 -129 794 -31 1079 265 153 159
256 368 282 574 l7 59 80 8 c642 62 1075 690 904 1309 -25 90 -93 235 -148
317 -45 65 -148 175 -219 232 l-43 34 35 76 c146 316 118 691 -75 989 -247
382 -721 560 -1155 434 -47 -13 -102 -31 -122 -40 -36 -15 -37 -15 -57 12
-179 245 -364 376 -625 443 -109 28 -312 36 -422 17z m327 -161 c222 -39 440
-177 563 -356 24 -36 29 -49 19 -56 -6 -5 -255 -150 -552 -321 -297 -171 -549
-318 -560 -326 -20 -14 -20 -29 -25 -705 l-5 -690 -237 137 -238 137 0 691 c0
577 3 706 15 779 31 175 117 338 246 466 207 206 486 294 774 244z m1285 -396
c188 -23 361 -104 497 -232 188 -179 277 -387 276 -647 -1 -140 -21 -237 -73
-348 -28 -60 -31 -62 -52 -51 -13 7 -264 152 -558 322 -424 246 -542 310 -570
310 -28 0 -154 -69 -608 -331 -315 -182 -577 -334 -582 -337 -6 -4 -10 98 -10
272 l1 278 520 300 c654 377 696 400 794 430 130 41 232 51 365 34z m-2480
-1200 c0 -399 4 -657 10 -668 5 -10 273 -171 595 -357 322 -186 585 -341 585
-344 0 -8 -456 -270 -470 -270 -13 0 -1098 625 -1191 686 -132 87 -264 251
-323 402 -61 156 -79 367 -42 516 55 227 191 422 379 544 121 79 298 139 415
141 l42 1 0 -651z m2568 60 c306 -177 587 -341 623 -365 132 -87 264 -251 323
-402 61 -156 79 -367 42 -516 -84 -345 -345 -599 -688 -670 -42 -9 -93 -16
-113 -16 l-35 0 0 651 c0 400 -4 657 -10 668 -5 10 -273 171 -595 357 -322
187 -585 341 -585 344 0 9 453 269 468 270 7 0 264 -145 570 -321z m-924 -204
l276 -160 0 -325 0 -325 -280 -162 -281 -162 -279 162 -280 162 0 325 0 326
278 161 c152 88 280 160 283 159 3 0 131 -73 283 -161z m734 -425 l182 -105
-3 -730 c-3 -715 -3 -732 -24 -805 -48 -164 -125 -295 -239 -407 -301 -293
-755 -335 -1103 -103 -127 86 -279 254 -248 277 6 5 257 151 557 324 299 172
553 322 562 331 17 17 18 61 18 704 l0 685 58 -33 c32 -18 140 -80 240 -138z
m-458 -847 l-1 -278 -520 -300 c-641 -370 -695 -399 -792 -430 -228 -73 -491
-44 -706 78 -93 52 -226 177 -286 267 -106 159 -148 302 -148 495 0 145 20
240 73 353 l30 64 52 -30 c29 -16 280 -161 558 -322 399 -232 512 -293 540
-293 28 0 154 69 615 336 319 185 581 336 583 336 1 1 2 -124 2 -276z"/>
</g>
</svg>
